<svg width="1180" height="217" viewBox="0 0 1180 217" fill="none" xmlns="http://www.w3.org/2000/svg">
<mask id="mask0_178_2" style="mask-type:luminance" maskUnits="userSpaceOnUse" x="3" y="4" width="1175" height="213">
<path d="M1177.94 4.1123H3.80664V216.979H1177.94V4.1123Z" fill="white"/>
</mask>
<g mask="url(#mask0_178_2)">
<path d="M465.756 216.297L374.205 123.444C355.848 104.873 332.147 93.7306 306.355 91.4093L264.065 48.4647C238.273 22.0014 202.953 7.37695 166.24 7.37695H73.0627C82.3571 22.0014 98.3898 30.5904 115.585 30.5904H166.472C197.144 30.5904 226.422 42.8935 248.031 64.9464L273.824 91.1776H128.597C137.892 105.802 153.925 114.391 171.12 114.391H297.06C320.064 114.391 341.906 123.444 358.172 140.157L410.686 193.317H200.398C171.12 193.317 144.166 178.46 128.132 153.854L47.9673 30.5904C38.6728 16.1981 22.8721 7.60908 5.9096 7.60908H3.81836L106.755 166.389C126.97 197.727 161.128 216.53 198.073 216.53H465.756V216.297Z" fill="white"/>
<path d="M812.205 14.5691C812.205 15.0334 812.205 57.7461 812.205 57.7461C812.205 76.7811 826.611 76.7811 831.954 76.7811H931.173V67.4959C931.173 67.4959 922.573 67.4959 914.207 66.3352C906.311 64.9423 900.036 58.9068 900.036 50.7821C900.036 42.6573 907.004 35.2291 915.604 35.2291C924.199 35.2291 920.718 35.9255 922.808 37.0861L926.06 32.9077C926.06 32.6756 925.596 32.4434 925.362 32.2113C920.019 27.8008 912.581 26.1758 907.004 26.1758C887.954 26.1758 880.75 43.818 880.75 51.0142C880.75 58.2103 882.377 63.3171 885.394 67.2636H840.319C834.507 67.2636 831.719 64.0139 831.719 57.5139V5.05164H805.23V10.1586C805.23 10.1586 811.042 10.1586 811.97 14.5691H812.205Z" fill="white"/>
<path d="M905.617 19.9089C910.031 19.9089 913.513 16.4269 913.513 12.0163C913.513 7.60578 910.031 4.12378 905.617 4.12378C901.202 4.12378 897.715 7.60578 897.715 12.0163C897.715 16.4269 901.202 19.9089 905.617 19.9089Z" fill="white"/>
<path d="M962.551 55.1853V60.5242C962.551 65.8636 962.551 72.5953 962.551 73.0598C962.551 85.827 963.25 103.005 1004.37 103.005C1045.5 103.005 1042.72 86.5231 1042.72 73.0598C1042.72 73.0598 1046.2 77.0056 1054.57 77.0056H1153.09C1158.43 77.0056 1172.84 75.3811 1172.84 58.2031V22.2223H1146.11V27.3292C1146.11 27.3292 1152.85 27.3292 1152.85 32.9004V58.2031C1152.85 64.4707 1150.54 67.4881 1144.72 67.4881H1054.33C1048.29 67.4881 1042.49 62.6138 1042.49 56.5781V25.2401H1015.76V30.347C1015.76 30.347 1017.62 30.347 1019.48 31.2755C1021.11 31.9719 1022.5 33.3647 1022.5 35.9182V57.5067C1022.5 77.2379 1023.2 95.809 1003.68 95.809C984.161 95.809 981.836 79.0953 981.836 60.7564V57.9709V44.9715H955.113V50.0784C955.113 50.0784 961.853 50.0784 961.853 55.6496L962.551 55.1853Z" fill="white"/>
<path d="M1048.76 209.567C1046.67 209.102 1043.41 207.942 1043.41 204.228V151.301C1043.41 150.141 1043.65 149.212 1044.11 148.515H1056.89C1059.91 148.98 1061.31 155.712 1062.93 157.801L1066.88 155.944L1063.4 139.462C1062.93 139.462 1057.36 140.855 1055.96 140.855H1010.42C1008.79 140.855 1000.66 139.927 1000.19 139.695L997.17 155.944L1001.12 157.801C1002.75 155.712 1004.14 148.748 1007.16 148.515H1022.27C1022.73 149.212 1022.97 150.141 1022.97 151.301V204.228C1022.97 207.942 1019.94 209.102 1017.85 209.567V215.138H1048.06V209.799L1048.76 209.567Z" fill="white"/>
<path d="M1119.62 209.567C1117.53 209.102 1114.28 207.942 1114.28 204.228V151.301C1114.28 150.141 1114.51 149.212 1114.98 148.515H1130.08C1133.1 148.98 1134.49 155.712 1136.12 157.801L1140.07 155.944L1136.59 139.462C1136.12 139.462 1128.22 140.855 1126.82 140.855H1081.28C1079.65 140.855 1073.85 139.927 1073.38 139.695L1070.36 155.944L1074.31 157.801C1075.94 155.712 1077.33 148.748 1080.35 148.515H1093.13C1093.6 149.212 1093.83 150.141 1093.83 151.301V204.228C1093.83 207.942 1090.81 209.102 1088.72 209.567V215.138H1118.93V209.799L1119.62 209.567Z" fill="white"/>
<path d="M1001.59 53.3339C1006 53.3339 1009.49 49.852 1009.49 45.4414C1009.49 41.0309 1006 37.5488 1001.59 37.5488C997.171 37.5488 993.689 41.0309 993.689 45.4414C993.689 49.852 997.171 53.3339 1001.59 53.3339Z" fill="white"/>
<path d="M1177.94 209.334C1175.85 208.87 1173.06 207.709 1173.06 203.995V151.068C1173.06 147.586 1176.08 146.194 1177.94 145.729V140.39H1147.96V145.729C1150.05 146.194 1153.31 147.354 1153.31 151.068V203.995C1153.31 207.709 1150.05 208.87 1147.96 209.334V214.673H1177.94V209.334Z" fill="white"/>
<path d="M1168.88 89.7829C1168.88 85.3725 1165.39 81.8905 1160.98 81.8905C1156.57 81.8905 1153.08 85.3725 1153.08 89.7829C1153.08 94.1938 1156.57 97.6758 1160.98 97.6758C1165.39 97.6758 1168.88 94.1938 1168.88 89.7829Z" fill="white"/>
<path d="M588.439 107.423C584.026 107.423 580.541 110.905 580.541 115.316C580.541 119.727 584.026 123.209 588.439 123.209C592.854 123.209 596.341 119.727 596.341 115.316C596.341 110.905 592.854 107.423 588.439 107.423Z" fill="white"/>
<path d="M926.3 210.492C923.981 210.027 920.729 208.403 920.729 204.224V151.298C920.729 145.958 927.462 145.726 927.462 145.726V140.62H894.006V145.726C894.006 145.726 900.745 145.726 900.745 151.298V173.118H872.161V151.298C872.161 145.958 878.9 145.726 878.9 145.726V140.62H847.299V145.958C849.389 146.423 852.412 147.583 852.412 151.298V204.224C852.412 207.938 849.389 209.099 847.299 209.563V214.902H877.039V209.563C874.95 209.099 872.161 207.938 872.161 204.456V182.868H900.745V204.688C900.745 208.17 897.957 209.563 895.861 209.795V215.367H926.071V210.956L926.3 210.492Z" fill="white"/>
<path d="M838.71 182.405H811.06V187.744C813.15 188.208 815.938 189.369 815.938 192.851V208.172C814.077 208.636 811.752 209.1 809.433 209.1C793.395 209.1 783.174 194.94 783.174 177.298C783.174 159.656 793.63 145.496 809.433 145.496C825.231 145.496 827.321 154.085 829.881 158.263L834.061 157.102L831.043 140.156H825.93C821.979 140.853 814.312 138.764 807.338 138.764C782.71 138.764 762.727 155.942 762.727 177.298C762.727 198.654 782.71 215.832 807.338 215.832C831.971 215.832 826.858 212.814 834.296 207.939V192.386C834.296 188.904 837.084 187.744 839.174 187.28V181.94L838.71 182.405Z" fill="white"/>
<path d="M558.699 54.7283V66.5669C558.699 77.9418 561.488 84.2096 566.832 90.4767C572.641 97.209 583.562 100.691 594.713 100.691C607.03 100.691 637.24 103.245 637.24 76.5489V67.4959H627.249C619.81 67.4959 616.094 63.5494 616.094 53.7998C616.094 44.0501 620.973 34.7648 630.965 34.7648H642.119V59.139C642.119 76.5489 655.592 76.7811 660.94 76.7811H796.64V47.9964C796.64 41.2645 796.64 23.6223 768.056 26.408C748.307 28.265 733.202 47.7643 729.721 54.0319V9.92646V5.05164H702.998V10.1586C702.998 10.1586 709.737 10.1586 709.737 15.4977V67.4959H669.306C663.494 67.4959 660.705 64.2456 660.705 57.7461V26.6401H629.567C618.419 26.6401 596.809 35.2291 596.809 55.6569C596.809 76.0844 613.071 74.4598 619.112 74.4598C619.112 82.5844 616.094 92.5664 594.25 92.5664C572.409 92.5664 578.218 80.4953 578.218 65.8707V44.2823H551.496V49.3892C551.496 49.3892 557.77 49.3892 558.234 54.264L558.699 54.7283ZM767.363 36.6219C776.886 36.6219 776.657 45.6751 776.657 50.3178V67.7275H729.95C731.576 62.621 750.168 36.6219 767.592 36.6219H767.363Z" fill="white"/>
<path d="M755.516 140.621H732.28V145.728C732.28 145.728 739.02 145.728 739.02 151.299V183.566L684.875 137.836V204.226C684.875 207.708 682.086 209.101 679.996 209.333V214.672H703.003V209.565C703.003 209.565 696.264 209.565 696.264 203.994V172.888L750.403 216.994V151.299C750.403 147.817 753.42 146.425 755.281 145.961V140.621H755.516Z" fill="white"/>
<path d="M1001.12 206.081L972.302 142.476C971.839 141.316 970.676 140.62 969.285 140.62C967.888 140.62 966.725 141.316 966.261 142.709L938.382 204.224C937.219 207.01 934.894 209.563 931.871 210.492V215.134H951.855V210.027H951.391C949.53 210.027 946.976 207.706 948.374 204.92L951.855 196.796H978.114L981.601 205.152C982.758 207.938 980.668 209.563 978.343 210.027V215.367H1007.63V210.259C1007.63 210.259 1003.44 210.956 1001.12 206.545V206.081ZM955.806 187.046L964.87 165.69L973.928 187.046H955.806Z" fill="white"/>
<path d="M667.91 209.334C665.82 208.87 663.032 207.709 663.032 203.995V151.068C663.032 147.586 666.049 146.194 667.91 145.73V140.39H638.398V145.73C640.488 146.194 643.277 147.354 643.277 150.836V203.763C643.277 207.245 640.488 208.406 638.398 208.87V214.209H667.91V208.87V209.334Z" fill="white"/>
<path d="M605.863 173.347C613.066 173.347 622.829 169.401 622.829 158.49C622.829 147.581 607.724 140.848 593.317 140.848H553.584V146.188C555.675 146.652 558.464 147.812 558.464 151.294V204.221C558.464 207.703 555.675 208.864 553.584 209.328V214.667H593.317C611.909 214.667 627.009 209.56 627.009 193.775C627.009 177.99 618.643 177.061 605.863 173.347ZM578.214 151.294C578.214 147.116 582.397 146.188 584.256 145.955C599.358 144.099 604.706 151.991 604.706 158.723C604.706 165.455 599.593 171.49 582.397 171.49H578.214V151.526V151.294ZM584.488 209.56C582.861 209.56 578.214 208.631 578.214 204.221V177.758C600.52 177.758 607.959 184.258 607.959 193.078C607.959 201.9 600.291 211.185 584.488 209.792V209.56Z" fill="white"/>
<path d="M600.525 115.316C600.525 119.727 604.013 123.209 608.427 123.209C612.842 123.209 616.323 119.727 616.323 115.316C616.323 110.905 612.842 107.423 608.427 107.423C604.013 107.423 600.525 110.905 600.525 115.316Z" fill="white"/>
</g>
</svg>
