<svg width="1180" height="157" viewBox="0 0 1180 157" fill="none" xmlns="http://www.w3.org/2000/svg">
<path d="M233.07 79.0775C242.372 56.7639 241.566 39.4154 230.71 27.0124C219.834 14.6683 199.342 8.4668 169.193 8.4668H67.2013L57.9973 30.8197H128.207C164.06 30.8197 174.424 48.7765 162.054 78.5084C154.934 95.6999 148.621 111.498 133.714 118.524C120.065 124.98 105.964 126.864 80.8893 126.864L48.3803 126.786L72.6687 68.9314H42.0673L7.61133 151.317H100.045C125.965 151.317 146.438 148.943 161.483 144.095C178.023 138.777 192.852 130.044 205.93 117.798C218.123 106.199 227.17 93.2664 233.07 79.0775Z" fill="white"/>
<path d="M813.847 94.1104L875.974 33.3514L888.875 94.1104H813.847ZM285.718 94.3459L346.213 36.2167L357.128 94.3459H285.718ZM870.644 8.29028L870.684 8.42766H832.806L687.272 145.292L744.168 8.46691H681.785L606.423 67.7933L567.62 99.8213H565.85L584.121 53.1727L561.858 8.46691H499.161L442.206 145.567L409.402 8.46691H340.726L189.057 151.317H226.935L265.717 113.971H361.278L368.889 151.317H470.428L507.165 63.0244C508.994 58.5892 510.764 53.4867 512.475 47.7562C512.672 52.4073 513.911 57.3135 516.172 62.4357L548.426 136.108H553.913L646.287 62.7104C649.729 59.9629 654.96 54.9978 661.981 47.7562C658.421 54.4679 655.924 59.5115 654.429 63.0244L617.731 151.317H684.794V151.258H755.476L793.787 113.735H893.045L901.029 151.258H935.918L901.914 8.29028H870.644Z" fill="white"/>
<path d="M1171.98 8.46655H1069.97C1039.84 8.46655 1014.21 14.6681 993.05 27.0122C971.889 39.4152 956.706 56.7637 947.404 79.0773C941.504 93.2662 939.812 106.199 942.349 117.797C945.319 130.043 952.832 138.796 964.907 144.095C975.979 148.942 994.505 151.317 1020.41 151.317H1112.62L1121.79 128.65H1069.87C1044.79 128.65 1028.14 125.373 1019.86 118.916C1010.75 111.949 1011.77 95.7193 1018.87 78.5082C1031.24 48.7763 1057.14 30.2699 1092.98 30.2699H1133.19L1123.97 52.5836H1154.57L1172.39 9.72255H1171.49L1171.98 8.46655Z" fill="white"/>
</svg>
