<svg width="1180" height="234" viewBox="0 0 1180 234" fill="none" xmlns="http://www.w3.org/2000/svg">
<g clip-path="url(#clip0_178_64)">
<path d="M171.418 210.236L167.915 233.417H0.365234C7.29783 217.38 6.85998 208.34 6.85998 196.75V37.3964C6.85998 26.1702 7.29783 16.3291 0.365234 0.729079H50.5718H163.828L164.12 24.3478C161.055 23.1085 158.574 22.0151 156.312 20.9945C150.255 18.7347 142.593 16.6207 134.639 16.6936C121.941 16.6936 68.6695 16.6936 45.0257 16.6936V107.815H150.182L145.001 125.748H45.0257V216.942C64.364 216.942 126.174 216.942 139.82 216.942C155.801 217.234 171.71 208.195 171.71 208.195L171.272 210.163C171.272 210.236 171.345 210.236 171.418 210.236ZM423.618 233.417C425.88 221.972 425.88 205.789 424.056 192.595L409.169 82.9571L327.875 233.344H312.405L229.797 76.1777L213.743 195C211.992 208.705 211.481 226.054 212.94 233.417H183.896C189.516 221.535 190.902 216.359 193.529 196.823L219.8 0.729079H233.154L329.554 183.701L425.88 0.729079H435.951L463.097 196.385C465.797 215.849 467.841 221.462 473.241 233.417H423.618ZM668.302 233.417L629.626 148.2H551.835L513.669 233.417H510.385H483.457H483.311C492.944 221.462 496.228 215.922 503.015 201.051L593.211 0.729079H603.355L692.092 195.437C701.579 214.464 706.03 220.368 719.603 233.417H668.302ZM911.673 233.417L872.996 148.2H795.205L757.039 233.417H753.828H726.828H726.682C736.314 221.462 739.598 215.922 746.385 201.051L836.582 0.729079H846.725L935.535 195.437C945.022 214.464 949.473 220.368 963.047 233.417H911.673ZM1132.2 233.563C1108.92 212.35 1078.78 184.211 1041.06 139.598C1030.26 126.987 1022.67 125.383 1017.78 125.092V196.75C1017.78 208.267 1017.78 217.38 1024.35 233.417H973.117C980.05 217.38 979.612 208.34 979.612 196.75V37.2506C979.612 26.0244 980.05 16.1833 973.117 0.583285H1023.32C1057.62 0.583285 1138.7 -2.4784 1138.7 64.4412C1138.7 99.7964 1110.6 118.823 1077.62 123.634L1067.84 124.581C1067.84 124.581 1174.82 229.043 1179.42 233.563H1132.2ZM1071.56 110.294L1071.49 110.366C1093.09 102.202 1100.38 81.7179 1099.66 64.3683C1098.85 47.6749 1091.34 11.3721 1017.85 14.288V113.501C1017.85 113.501 1059.01 115.761 1070.54 110.731C1071.2 110.439 1071.56 110.294 1071.56 110.294ZM802.648 131.944H865.48L833.809 62.473L802.648 131.944ZM559.351 131.944H622.182L590.511 62.473L559.351 131.944Z" fill="white"/>
</g>
<defs>
<clipPath id="clip0_178_64">
<rect width="1180" height="234" fill="white"/>
</clipPath>
</defs>
</svg>
