<svg width="1180" height="475" viewBox="0 0 1180 475" fill="none" xmlns="http://www.w3.org/2000/svg">
<g clip-path="url(#clip0_178_31)">
<path d="M357.451 114.445H333.789C333.789 105.835 332.354 99.9125 329.484 96.6774C326.076 93.2682 320.16 90.9363 311.554 89.8619C306.533 89.3233 298.463 88.9652 286.987 88.9652C275.56 88.7452 264.128 89.1047 252.737 90.0423C247.685 90.3956 242.721 91.5462 238.028 93.4515C234.812 94.8644 232.116 97.2472 230.319 100.267C228.37 104.22 227.445 108.6 227.63 113.004C227.293 118.489 228.672 123.944 231.576 128.609C234.629 132.915 241.978 135.605 253.811 136.502C257.039 136.86 267.799 137.218 286.282 137.756C305.827 138.295 319.276 139.012 326.629 139.908C332.99 140.603 339.214 142.236 345.098 144.752C349.574 146.728 353.42 149.898 356.216 153.914C359.624 158.578 361.417 166.112 361.417 176.337C361.417 191.051 357.831 200.911 350.479 206.114C343.305 211.494 332.548 214.545 318.381 215.622C307.621 216.339 293.992 216.877 277.307 216.877C255.787 216.877 241.262 215.981 233.552 214.545C216.157 210.958 206.116 202.347 203.604 188.355C202.719 183.201 202.3 177.979 202.35 172.75H226.02V175.804C225.875 181.25 226.788 186.672 228.709 191.77C230.611 195.538 233.891 198.429 237.868 199.843C243.796 201.942 250.049 202.976 256.337 202.896C264.047 202.896 273.013 203.077 283.415 203.077C294.433 203.351 305.457 202.872 316.41 201.642C321.827 201.248 327.062 199.523 331.652 196.62C335.776 193.566 337.93 186.037 337.93 174.555C338.182 169.909 337.059 165.292 334.702 161.282C331.649 157.156 324.839 154.466 314.259 153.569C311.207 153.389 300.106 152.853 280.546 152.134C262.254 151.596 251.128 151.057 247.192 150.699C231.77 149.264 220.653 145.677 213.301 139.397C207.195 134.195 204.143 125.944 204.143 115C204.143 99.3943 209.342 88.9902 219.742 83.7876C227.813 79.8399 238.572 77.5079 252.021 76.6112C260.988 76.0726 271.21 75.895 282.147 75.895C304.563 75.895 319.985 76.7917 329.129 78.7655C344.729 81.9942 353.876 89.3483 356.565 100.47C357.154 105.11 357.453 109.783 357.462 114.462" fill="white"/>
<path d="M403.534 90.406V137.226H510.409V150.321H403.534V201.803H515.071V215.075H379.863V77.1331H515.071V90.406H403.534Z" fill="white"/>
<path d="M557.395 76.9554V200.548H665.705V215.078H533.725V76.9554H557.395Z" fill="white"/>
<path d="M708.026 90.406V137.226H814.901V150.321H708.026V201.803H819.563V215.075H684.355V77.1331H819.563V90.406H708.026Z" fill="white"/>
<path d="M984.541 168.977H1008.21V175.793C1008.21 187.811 1006.24 196.614 1001.76 201.983C996.016 209.159 984.899 213.643 968.58 215.256C961.048 215.972 943.117 216.511 914.784 216.511C901.506 216.797 888.232 215.774 875.154 213.457C859.193 210.228 848.614 202.694 843.413 191.034C840.005 183.141 838.393 168.433 838.393 146.549C838.393 128.073 838.573 116.771 839.109 112.646C839.833 104.159 843.664 96.2379 849.868 90.4032C855.974 85.023 865.11 81.0753 877.124 78.5629C887.345 76.4113 907.788 75.5091 938.632 75.5091C950.746 75.1895 962.864 75.9093 974.855 77.6606C990.993 81.0697 1000.66 88.6015 1003.72 100.261C1004.95 106.467 1005.61 112.772 1005.69 119.098H982.029L981.849 114.792C982.083 109.765 981.231 104.746 979.351 100.078C977.799 96.7007 975.053 94.017 971.641 92.5437C966.261 90.0321 954.784 88.7764 937.211 88.7764C917.485 88.7764 902.243 89.315 891.664 90.0312C886.038 90.2683 880.506 91.5455 875.345 93.7985C871.449 95.7492 868.346 98.9851 866.559 102.96C864.407 107.085 863.331 113.902 863.331 123.409C863.331 140.091 863.689 154.802 864.227 167.55C864.943 183.874 869.428 194.099 877.318 198.044C882.697 200.734 891.306 202.169 903.128 202.527C909.234 202.708 915.681 202.885 922.494 202.885C939.171 202.885 951.543 202.527 959.96 201.631C968.378 200.734 974.306 199.299 977.356 197.325C982.376 194.096 984.707 187.639 984.707 177.592C984.707 175.44 984.707 172.57 984.527 168.986" fill="white"/>
<path d="M1111.86 91.6636V215.078H1088.19V91.4831H1019.69V77.1331H1180V91.6636H1111.86Z" fill="white"/>
<path d="M286.079 329.345H376.275C376.633 333.113 376.991 337.238 376.991 341.902C376.991 352.665 376.811 360.377 376.275 365.041C375.916 372.282 373.209 379.209 368.565 384.774C363.244 390.422 356.28 394.25 348.661 395.715C339.503 398.214 320.148 399.483 290.741 399.483C275.528 399.761 260.313 399.043 245.194 397.331C236.472 396.283 228.053 393.477 220.447 389.08C215.51 386.241 211.363 382.207 208.387 377.35C205.411 372.493 203.701 366.967 203.412 361.277C202.851 354.955 202.612 348.609 202.696 342.263C202.696 341.008 202.696 335.983 202.516 327.016V321.464C202.288 313.544 202.768 305.62 203.951 297.786C207.003 278.95 217.4 267.292 234.795 262.448C244.496 260.169 254.418 258.966 264.382 258.861C271.556 258.503 281.239 258.503 293.073 258.503C310.109 258.503 322.124 258.683 329.118 259.042C335.214 259.26 341.277 260.041 347.229 261.374C364.991 265.321 374.665 273.93 376.281 287.025C376.461 289.524 376.461 293.663 376.461 299.94H353.149C353.176 295.678 352.877 291.42 352.252 287.203L348.844 280.027C345.792 275.901 338.265 273.569 326.251 272.673C318.541 272.134 304.912 271.776 285.366 271.776C272.648 271.425 259.924 272.206 247.345 274.108C237.839 276.082 231.745 281.104 229.053 289.535C227.618 293.841 226.722 306.747 226.555 328.282C226.736 345.322 226.913 355.369 227.271 358.418C227.81 365.952 229.602 371.871 233.01 375.819C237.042 380.21 242.514 383.01 248.433 383.711C257.219 385.327 274.242 386.21 299.539 386.21C310.263 386.403 320.987 385.863 331.638 384.594C337.069 384.143 342.305 382.355 346.879 379.391C351.361 375.624 353.693 366.296 353.693 351.588C353.693 349.614 353.512 346.744 353.335 342.799H286.451V329.345" fill="white"/>
<path d="M403.895 398.047V259.925H504.135C522.785 259.925 536.772 261.898 546.274 266.032C549.991 267.424 553.385 269.557 556.252 272.301C559.119 275.046 561.398 278.345 562.951 281.998C565.116 287.595 566.093 293.581 565.82 299.577C565.82 314.646 561.696 324.69 553.448 329.534C548.248 332.588 540.357 334.556 529.42 335.814V335.994C537.947 335.885 546.312 338.321 553.448 342.99C557.885 346.013 560.971 350.645 562.052 355.905L562.768 362.721V398.058H539.278V366.477C539.325 362.635 538.719 358.813 537.485 355.175C533.181 346.014 520.451 341.722 499.464 342.26H427.557V398.061H403.887M427.377 328.821H496.056C511.298 328.821 522.596 327.566 529.409 324.695C537.838 321.286 542.142 314.651 542.142 304.604C542.223 299.689 541.984 294.774 541.426 289.891C540.172 281.64 534.432 276.437 523.853 274.644C517.385 273.652 510.85 273.172 504.307 273.209H427.39L427.377 328.821Z" fill="white"/>
<path d="M684.713 258.489C699.422 258.489 710.523 258.847 718.605 259.386C725.701 259.874 732.73 261.075 739.586 262.973C756.792 267.817 767.202 278.758 770.607 295.979C771.77 304.417 772.25 312.935 772.042 321.45C772.042 343.335 771.504 357.146 770.249 362.707C769.44 370.279 766.267 377.403 761.181 383.07C756.096 388.737 749.356 392.658 741.917 394.277C730.925 397.295 719.599 398.922 708.203 399.122C701.029 399.48 692.423 399.48 682.201 399.48C664.806 399.48 652.076 399.122 644.18 398.403C636.804 397.945 629.514 396.559 622.483 394.277C608.677 389.971 599.89 382.079 596.302 370.599C593.804 363.065 592.536 352.124 592.355 337.593V318.399C592.211 310.839 592.691 303.279 593.79 295.798C595.166 287.966 598.636 280.652 603.831 274.633C609.592 268.941 616.784 264.913 624.645 262.973C634.576 260.568 644.737 259.244 654.951 259.025C663.38 258.667 673.063 258.486 684.719 258.486M679.698 271.94C666.43 271.94 656.924 272.12 650.836 272.478C645.634 272.782 640.472 273.562 635.413 274.81C631.667 275.671 628.201 277.474 625.346 280.049C622.49 282.624 620.339 285.885 619.095 289.524C617.155 295.054 616.185 300.876 616.225 306.736V328.801C616.225 346.202 616.583 356.247 616.941 359.475C617.466 365.143 619.442 370.58 622.68 375.261C625.899 379.147 630.312 381.859 635.233 382.973C642.223 384.667 649.381 385.57 656.572 385.663C663.385 385.843 671.814 386.021 682.215 386.021C704.093 386.021 718.261 385.305 724.535 384.228C729.476 383.466 734.189 381.63 738.342 378.847C741.785 376.199 744.347 372.572 745.694 368.442C747.585 362.84 748.494 356.953 748.383 351.041L748.203 328.799C748.203 311.758 748.022 301.353 747.487 298.125C747.046 292.438 745.061 286.98 741.748 282.339C738.439 278.47 733.975 275.767 729.015 274.627C721.903 272.937 714.627 272.035 707.318 271.937H679.69" fill="white"/>
<path d="M949.042 259.925H972.712V356.61C972.712 368.27 970.739 376.521 966.973 381.723C961.423 389.436 951.013 394.638 936.129 397.151C927.881 398.586 912.639 399.302 890.762 399.302C875.162 399.302 863.683 399.122 856.332 398.586C849.861 398.345 843.431 397.444 837.144 395.896C824.949 393.025 816.521 388.361 811.858 382.084C807.912 376.704 805.941 368.273 805.941 356.613V259.925H829.428V356.61C829.428 366.835 830.863 373.65 833.911 376.876C837.677 381.002 844.67 383.692 855.072 384.949C865.502 385.94 875.979 386.359 886.455 386.204C909.048 386.204 924.292 385.308 932.36 383.514C939.892 381.721 944.732 377.962 947.069 371.496C948.519 366.673 949.125 361.637 948.862 356.607V259.925" fill="white"/>
<path d="M1006.78 398.047V259.925H1095C1104.86 259.925 1111.86 259.925 1116.16 260.105C1124.52 260.362 1132.82 261.566 1140.91 263.692C1146.54 265.39 1151.61 268.551 1155.62 272.853C1161.54 279.311 1164.59 289.177 1164.59 302.281C1164.59 313.941 1162.25 322.73 1157.59 328.471C1151.67 335.825 1142.53 340.489 1129.8 342.282C1125.49 342.999 1112.76 343.36 1091.24 343.537H1030.46V397.711H1006.79M1030.46 330.445H1086.77C1105.42 330.445 1117.97 329.729 1124.43 327.946C1127.65 327.423 1130.68 326.119 1133.28 324.149C1135.87 322.179 1137.95 319.602 1139.31 316.645C1140.74 312.683 1141.35 308.473 1141.11 304.268C1141.11 294.402 1140.21 287.406 1138.05 283.281C1135.72 278.436 1130.16 275.388 1121.74 274.119C1118.33 273.581 1109.36 273.403 1094.48 273.222H1030.65V330.445H1030.46Z" fill="white"/>
<mask id="mask0_178_31" style="mask-type:luminance" maskUnits="userSpaceOnUse" x="-1" y="41" width="131" height="433">
<path d="M3.46854 229.07C3.46854 229.07 11.3558 270.865 55.8294 332.022C55.8294 332.022 104.602 401.084 59.057 451.489C52.7794 459.201 39.6913 473.912 39.6913 473.912C64.9518 458.252 87.5324 438.634 106.57 415.807C106.57 415.807 153.555 348.718 111.77 287.908C111.77 287.908 67.1192 221.897 62.2763 191.4C62.2763 191.4 39.1445 93.4598 76.0833 41.079C76.0833 41.079 -19.136 141.532 3.45744 229.07" fill="white"/>
</mask>
<g mask="url(#mask0_178_31)">
<path d="M100.027 -38.8123L-219.252 175.262L34.4025 553.819L353.681 339.744L100.027 -38.8123Z" fill="white"/>
</g>
<mask id="mask1_178_31" style="mask-type:luminance" maskUnits="userSpaceOnUse" x="38" y="0" width="141" height="476">
<path d="M119.654 0C-9.62562 93.2793 71.4287 188.888 71.6091 188.888C132.579 265.305 130.067 310.867 130.067 310.867C132.756 395.882 38.4336 475.003 38.4336 475.003C137.233 411.501 169.148 316.608 169.148 316.608C198.916 244.497 150.679 177.231 150.679 177.231C134.274 154.114 120.107 129.486 108.37 103.682C86.8508 42.1534 119.654 0 119.654 0Z" fill="white"/>
</mask>
<g mask="url(#mask1_178_31)">
<path d="M137.847 -94.9417L-225.719 139.114L51.4554 569.939L415.021 335.883L137.847 -94.9417Z" fill="white"/>
</g>
</g>
<defs>
<clipPath id="clip0_178_31">
<rect width="1180" height="475" fill="white"/>
</clipPath>
</defs>
</svg>
