<svg width="1180" height="248" viewBox="0 0 1180 248" fill="none" xmlns="http://www.w3.org/2000/svg">
<g clip-path="url(#clip0_178_25)">
<path d="M560.794 227.003H533.977V24.4944H551.576C583.084 24.4944 593.637 39.7769 593.637 62.7797C593.637 66.6093 596.196 104.224 565.229 111.071C573.102 113.047 587.935 117.968 599.739 128.824C612.127 139.062 617.937 154.91 617.937 173.104C617.937 205.007 600.344 227.003 560.794 227.003ZM589.282 110.41C610.405 102.69 624.98 87.7487 624.98 64.0688C624.98 27.4612 591.462 11.7365 548.895 11.7365H500.455V239.761H563.805C611.74 239.761 653.303 220.398 653.303 176.406C653.303 141.649 627.329 117.798 589.282 110.41Z" fill="white"/>
<path d="M19.646 232.139C35.2293 240.144 55.0581 243.693 72.0949 243.693C101.618 243.693 153.648 233.108 153.648 181.392C153.648 145.154 127.415 124.782 84.2139 95.5367C64.2211 81.3579 36.9912 67.0308 36.9912 43.7042C36.9912 24.3058 54.9513 12.6948 79.8223 12.6948C104.788 12.6948 124.314 24.5249 129.007 27.6261L116.676 6.2024C108.337 1.51023 89.9443 -0.00183105 80.1762 -0.00183105C47.1744 -0.00183105 8.62627 13.9266 8.62627 53.1754C8.62627 84.2123 33.1156 101.746 73.6826 130.794C92.5225 144.174 122.127 165.358 122.127 191.39C122.127 215.82 103.026 230.996 72.2688 230.996C36.2339 230.996 10.0183 209.634 3.73633 204.014L19.646 232.139Z" fill="white"/>
<path d="M391.81 125.749C391.81 64.0183 361.798 20.5196 316.931 20.5196C272.059 20.5196 242.045 64.0183 242.045 125.749C242.045 187.817 272.059 230.978 316.931 230.978C361.798 230.978 391.81 187.817 391.81 125.749ZM316.931 243.693C255.819 243.693 208.389 195.016 208.389 125.749C208.389 58.1615 255.819 7.80518 316.931 7.80518C378.043 7.80518 425.334 58.1615 425.334 125.749C425.334 195.016 378.044 243.693 316.931 243.693Z" fill="white"/>
<path d="M1030.6 160.115H1108.37L1069.49 65.2377L1030.6 160.115ZM1113.57 172.829H1025.4L997.915 239.766H984.838L1080.54 6.66956L1176.26 239.766H1141.06L1113.57 172.829Z" fill="white"/>
<path d="M886.85 11.7943V105.452H764.332V11.7943H730.811V239.77H764.332V118.167H886.85V239.77H920.373V11.7943H886.85Z" fill="white"/>
</g>
<defs>
<clipPath id="clip0_178_25">
<rect width="1180" height="248" fill="white"/>
</clipPath>
</defs>
</svg>
